
<svg data-logo="logo" xmlns="http://www.w3.org/2000/svg" viewBox="0 0 223 41">
<g id="logogram" transform="translate(0, 0)"><path d="M37.984 13.4816C35.5795 9.31734 29.568 9.31734 27.1635 13.4816L23.592 19.6667H30.7491C34.997 19.6667 38.2049 22.6684 39.0148 26.3202L39.8936 24.7985C41.3246 22.3202 41.3246 19.2668 39.8936 16.7885L37.984 13.4816Z" fill="#BB6BD9"/><path fill-rule="evenodd" clip-rule="evenodd" d="M28.1915 0.782724C31.2983 0.783139 34.1689 2.44051 35.7223 5.13066C37.7528 8.64705 39.7726 12.1696 41.8031 15.686C43.628 18.8464 43.628 22.7402 41.8031 25.9006C39.7796 29.4047 37.7456 32.9027 35.7222 36.4068C34.1688 39.097 31.2982 40.7544 28.1914 40.7548C23.8429 40.7553 19.4968 40.7838 15.1485 40.7827C12.0421 40.7819 9.17203 39.1245 7.61885 36.4347C5.59159 32.9239 3.56768 29.4112 1.54045 25.9005C-0.284481 22.7401 -0.28448 18.8463 1.54045 15.6859C3.56686 12.1766 5.59254 8.66683 7.61895 5.15751C9.17213 2.46771 12.0422 0.810395 15.1486 0.809569C19.497 0.80882 23.8433 0.782144 28.1915 0.782724ZM17.7652 3.01371L15.1492 3.01416C13.0795 3.01471 11.1504 4.00033 9.9353 5.63984C9.78897 5.83727 9.65299 6.04418 9.52837 6.26L7.1797 10.3274C7.16231 10.3575 7.14521 10.3877 7.12839 10.4179L7.12789 10.4188C4.8642 14.4866 7.70153 19.4975 12.3135 19.6909H19.7592V19.6665H19.7623L16.1776 13.4585C14.0646 9.79919 15.0395 5.5458 17.7652 3.01371ZM21.6717 23.0038C22.6574 24.7109 23.6395 26.4201 24.629 28.125L25.2554 29.2098C27.6604 33.3747 24.6534 38.5806 19.8435 38.5793L15.1491 38.5781C12.8302 38.5775 10.6878 37.3403 9.52836 35.3324L8.20552 33.0416C11.6229 34.1132 15.6205 32.9835 17.8147 29.6527L17.8154 29.6517C17.9102 29.5077 18.0017 29.3596 18.0896 29.2074L21.6717 23.0038ZM19.7447 21.9013L17.0574 26.5552C16.7605 27.0693 16.477 27.5908 16.18 28.1051C13.7755 32.2693 7.76405 32.2693 5.35948 28.1051L3.44996 24.7982C2.0189 22.3199 2.0189 19.2665 3.44997 16.7882L4.32856 15.2666C4.73696 17.0883 5.7422 18.7469 7.1754 19.9502C8.5357 21.0922 10.2815 21.824 12.2685 21.8955C12.375 21.8994 12.4822 21.9013 12.5901 21.9013H19.7447ZM23.5638 21.8711H30.7491C35.5582 21.8711 38.5639 27.0764 36.1594 31.2406L33.8127 35.3045C32.6531 37.3127 30.5103 38.5499 28.1911 38.5502L25.5793 38.5505C28.3035 36.0182 29.2775 31.766 27.165 28.1075L23.5638 21.8711ZM21.6771 18.5736L18.0871 12.3564C15.6823 8.19187 18.6887 2.98627 23.4982 2.98691L28.1912 2.98754C30.5104 2.98785 32.6532 4.22504 33.8128 6.23318L35.1499 8.54873C31.5819 7.42415 27.3779 8.70098 25.254 12.3792L21.6771 18.5736ZM27.1635 13.4815C29.5681 9.31732 35.5795 9.31732 37.9841 13.4815L39.8936 16.7884C41.3246 19.2667 41.3246 22.3201 39.8936 24.7984L39.0149 26.3202C38.2049 22.6684 34.997 19.6667 30.7492 19.6667H23.592L27.1635 13.4815Z" fill="#283841"/><path d="M25.5795 38.5506C28.3036 36.0183 29.2776 31.7661 27.1651 28.1077L23.5639 21.8712L30.7491 21.8712C35.5582 21.8712 38.564 27.0765 36.1594 31.2407L33.8127 35.3046C32.6532 37.3128 30.5103 38.55 28.1911 38.5503L25.5795 38.5506Z" fill="#EB5757"/><path d="M8.20566 33.0418C11.7711 34.1598 15.968 32.8817 18.0895 29.2076L21.6718 23.0038L25.2555 29.2099C27.6604 33.3748 24.6534 38.5807 19.8435 38.5794L15.1491 38.5782C12.8303 38.5775 10.6878 37.3404 9.52838 35.3325L8.20566 33.0418Z" fill="#F2994A"/><path d="M4.32854 15.2667L3.44985 16.7884C2.01879 19.2667 2.01879 22.3201 3.44985 24.7984L5.35936 28.1053C7.76394 32.2695 13.7754 32.2695 16.1799 28.1053L19.7623 21.9013H12.59C8.3495 21.9013 5.14536 18.9099 4.32854 15.2667Z" fill="#F2C94C"/><path d="M7.12667 10.4209C6.95768 10.7248 6.81717 11.034 6.70373 11.3461C6.81749 11.0332 6.95847 10.7232 7.12808 10.4185L7.12667 10.4209Z" fill="#F2C94C"/><path d="M17.7655 3.01367C15.0396 5.54574 14.0646 9.79926 16.1777 13.4587L19.7799 19.6969H12.59C7.78087 19.6969 4.77516 14.4917 7.17973 10.3274L9.5284 6.26001C10.6878 4.25214 12.8303 3.01499 15.1491 3.01437L17.7655 3.01367Z" fill="#27AE60"/><path d="M21.6771 18.5737L18.0871 12.3564C15.6823 8.1919 18.6887 2.9863 23.4982 2.98694L28.1912 2.98757C30.5104 2.98787 32.6533 4.22506 33.8128 6.23321L35.1499 8.54875C31.5819 7.42418 27.378 8.70101 25.254 12.3792L21.6771 18.5737Z" fill="#2F80ED"/></g>
<g id="logotype" transform="translate(50, 0.5)"><path fill="#100505" d="M26.16 35L8.59 35L8.59 10.15L25.88 10.15L25.88 14.63L13.91 14.63L13.91 20.34L25.46 20.34L25.46 24.74L13.91 24.74L13.91 30.52L26.16 30.52L26.16 35ZM32.95 35L27.28 35L33.97 25.48L27.46 16.24L33.02 16.24L37.05 22.26L40.93 16.24L46.64 16.24L40.16 25.52L46.81 35L41.25 35L37.12 28.63L32.95 35ZM53.46 40.25L48.21 40.25L48.21 16.24L53.25 16.24L53.36 20.20L52.94 20.02Q53.64 17.99 55.21 16.90Q56.79 15.82 58.89 15.82L58.89 15.82Q61.51 15.82 63.26 17.11Q65.01 18.41 65.90 20.63Q66.80 22.85 66.80 25.62L66.80 25.62Q66.80 28.35 65.90 30.59Q65.01 32.83 63.24 34.13Q61.48 35.42 58.85 35.42L58.85 35.42Q57.49 35.42 56.30 34.91Q55.11 34.41 54.25 33.49Q53.39 32.59 53.01 31.32L53.01 31.32L53.46 31.04L53.46 40.25ZM57.42 31.39L57.42 31.39Q59.27 31.39 60.34 29.86Q61.41 28.31 61.41 25.62L61.41 25.62Q61.41 22.92 60.34 21.38Q59.27 19.84 57.42 19.84L57.42 19.84Q56.19 19.84 55.30 20.49Q54.41 21.14 53.93 22.43Q53.46 23.73 53.46 25.62L53.46 25.62Q53.46 27.51 53.93 28.80Q54.41 30.10 55.30 30.75Q56.19 31.39 57.42 31.39ZM77.44 35.42L77.44 35.42Q74.57 35.42 72.45 34.21Q70.33 33.01 69.16 30.80Q67.99 28.59 67.99 25.62L67.99 25.62Q67.99 22.64 69.16 20.46Q70.33 18.27 72.43 17.04Q74.53 15.82 77.40 15.82L77.40 15.82Q80.20 15.82 82.27 17.04Q84.33 18.27 85.47 20.54Q86.61 22.82 86.61 25.97L86.61 25.97L86.61 27.02L73.41 27.02Q73.52 29.26 74.62 30.34Q75.72 31.43 77.54 31.43L77.54 31.43Q78.87 31.43 79.76 30.87Q80.66 30.31 81.04 29.16L81.04 29.16L86.33 29.47Q85.59 32.27 83.21 33.84Q80.83 35.42 77.44 35.42ZM73.41 23.80L73.41 23.80L81.22 23.80Q81.11 21.73 80.08 20.72Q79.05 19.70 77.40 19.70L77.40 19.70Q75.76 19.70 74.69 20.77Q73.62 21.84 73.41 23.80ZM94.03 35L88.78 35L88.78 16.24L93.50 16.24L93.71 21.73L93.05 21.56Q93.33 19.46 94.18 18.20Q95.04 16.94 96.34 16.38Q97.63 15.82 99.17 15.82L99.17 15.82Q101.20 15.82 102.62 16.69Q104.04 17.57 104.79 19.16Q105.54 20.75 105.54 22.92L105.54 22.92L105.54 35L100.29 35L100.29 24.67Q100.29 23.17 100.05 22.12Q99.80 21.07 99.17 20.53Q98.54 19.98 97.42 19.98L97.42 19.98Q95.78 19.98 94.90 21.19Q94.03 22.40 94.03 24.67L94.03 24.67L94.03 35ZM116.67 35.42L116.67 35.42Q113.77 35.42 111.81 34.60Q109.85 33.77 108.81 32.36Q107.78 30.94 107.64 29.09L107.64 29.09L112.96 28.91Q113.21 30.24 114.08 30.98Q114.96 31.71 116.67 31.71L116.67 31.71Q118.07 31.71 118.86 31.25Q119.65 30.80 119.65 29.86L119.65 29.86Q119.65 29.26 119.37 28.86Q119.09 28.45 118.26 28.16Q117.44 27.86 115.83 27.61L115.83 27.61Q112.86 27.09 111.18 26.39Q109.50 25.69 108.80 24.57Q108.10 23.45 108.10 21.84L108.10 21.84Q108.10 19.14 110.18 17.48Q112.26 15.82 116.43 15.82L116.43 15.82Q119.09 15.82 120.89 16.66Q122.69 17.50 123.69 18.95Q124.69 20.41 124.93 22.26L124.93 22.26L119.65 22.47Q119.54 21.56 119.10 20.91Q118.67 20.27 118.00 19.90Q117.34 19.53 116.39 19.53L116.39 19.53Q114.99 19.53 114.24 20.11Q113.49 20.68 113.49 21.63L113.49 21.63Q113.49 22.33 113.82 22.77Q114.15 23.20 114.92 23.48Q115.69 23.77 116.99 23.94L116.99 23.94Q120.00 24.36 121.76 25.11Q123.53 25.86 124.30 26.98Q125.07 28.11 125.07 29.75L125.07 29.75Q125.07 31.57 124.02 32.83Q122.97 34.09 121.10 34.76Q119.23 35.42 116.67 35.42ZM132.49 35L127.24 35L127.24 16.24L132.49 16.24L132.49 35ZM132.56 13.93L127.14 13.93L127.14 9.73L132.56 9.73L132.56 13.93ZM141.14 35L135.82 35L135.82 10.15L152.97 10.15L152.97 14.63L138.20 14.63L141.14 11.58L141.14 22.96L138.20 20.65L152.34 20.65L152.34 25.06L138.20 25.06L141.14 22.75L141.14 35ZM159.33 40.25L155.76 40.25L155.76 36.33L158.25 36.33Q159.16 36.33 159.60 36.07Q160.03 35.80 160.28 35.14L160.28 35.14L160.66 34.05L159.23 34.05L152.65 16.24L158.00 16.24L162.31 29.16L166.33 16.24L171.69 16.24L164.48 36.78Q163.85 38.64 162.66 39.45Q161.47 40.25 159.33 40.25L159.33 40.25Z"/></g>

</svg>
